<svg preserveAspectRatio="none" width="100%" height="100%" overflow="visible" style="display: block;" viewBox="0 0 25.2 25.2" fill="none" xmlns="http://www.w3.org/2000/svg">
<g id="Frame">
<path id="Vector" d="M11.8133 4.92749C11.8843 5.00279 11.9397 5.09136 11.9764 5.18811C12.0132 5.28486 12.0305 5.3879 12.0274 5.49134C12.0243 5.59478 12.0008 5.6966 11.9583 5.79096C11.9158 5.88533 11.8551 5.97039 11.7797 6.04129L5.86569 11.6087L21.2829 12.0729C21.4916 12.0791 21.6894 12.1681 21.8325 12.3202C21.9757 12.4722 22.0526 12.6749 22.0463 12.8837C22.04 13.0925 21.9511 13.2902 21.799 13.4334C21.647 13.5765 21.4442 13.6534 21.2355 13.6471L5.8183 13.183L11.3867 19.0961C11.53 19.2482 11.6069 19.451 11.6006 19.6599C11.5943 19.8688 11.5053 20.0666 11.3532 20.2099C11.201 20.3531 10.9982 20.4301 10.7893 20.4238C10.5804 20.4175 10.3826 20.3285 10.2394 20.1763L3.36836 12.8788C3.29737 12.8035 3.24193 12.7149 3.20519 12.6181C3.16846 12.5214 3.15115 12.4184 3.15427 12.3149C3.15738 12.2115 3.18085 12.1097 3.22334 12.0153C3.26583 11.9209 3.3265 11.8359 3.40189 11.765L10.6995 4.89395C10.7748 4.82297 10.8633 4.76752 10.9601 4.73079C11.0568 4.69405 11.1599 4.67675 11.2633 4.67986C11.3668 4.68298 11.4686 4.70645 11.5629 4.74894C11.6573 4.79143 11.7424 4.8521 11.8133 4.92749Z" fill="var(--fill-0, white)"/>
</g>
</svg>
