<svg preserveAspectRatio="none" width="100%" height="100%" overflow="visible" style="display: block;" viewBox="0 0 16 16" fill="none" xmlns="http://www.w3.org/2000/svg">
<g id="arrow_right_alt">
<mask id="mask0_3203_1830" style="mask-type:alpha" maskUnits="userSpaceOnUse" x="0" y="0" width="16" height="16">
<rect id="Bounding box" width="16" height="16" fill="var(--fill-0, #D9D9D9)"/>
</mask>
<g mask="url(#mask0_3203_1830)">
<path id="arrow_right_alt_2" d="M11.0743 8.5H3.5C3.35811 8.5 3.23933 8.45211 3.14367 8.35633C3.04789 8.26066 3 8.14189 3 8C3 7.85811 3.04789 7.73933 3.14367 7.64366C3.23933 7.54789 3.35811 7.5 3.5 7.5H11.0743L8.8795 5.30516C8.78039 5.20594 8.73145 5.08989 8.73267 4.957C8.734 4.82411 8.78295 4.70594 8.8795 4.6025C8.98295 4.49916 9.10172 4.44577 9.23583 4.44233C9.37006 4.43889 9.48889 4.48889 9.59233 4.59233L12.5782 7.57816C12.6406 7.64061 12.6846 7.70644 12.7102 7.77566C12.7358 7.84489 12.7487 7.91966 12.7487 8C12.7487 8.08033 12.7358 8.15511 12.7102 8.22433C12.6846 8.29355 12.6406 8.35939 12.5782 8.42183L9.59233 11.4077C9.49311 11.5068 9.37539 11.5557 9.23917 11.5545C9.10283 11.5532 8.98295 11.5008 8.8795 11.3975C8.78295 11.2941 8.73295 11.1769 8.7295 11.0462C8.72606 10.9154 8.77606 10.7983 8.8795 10.6948L11.0743 8.5Z" fill="var(--fill-0, black)"/>
</g>
</g>
</svg>
