<svg preserveAspectRatio="none" width="100%" height="100%" overflow="visible" style="display: block;" viewBox="0 0 12.0273 23.8095" fill="none" xmlns="http://www.w3.org/2000/svg">
<g id="XMLID_834_">
<path id="XMLID_835_" d="M0.384025 12.681H2.99393V23.4255C2.99393 23.6376 3.16582 23.8095 3.37796 23.8095H7.80315C8.01528 23.8095 8.18717 23.6376 8.18717 23.4255V12.7316H11.1875C11.3826 12.7316 11.5467 12.5852 11.569 12.3914L12.0247 8.43579C12.0372 8.32696 12.0027 8.21797 11.9299 8.13633C11.857 8.05461 11.7527 8.00783 11.6432 8.00783H8.18733V5.52826C8.18733 4.7808 8.58979 4.40177 9.38364 4.40177C9.49678 4.40177 11.6432 4.40177 11.6432 4.40177C11.8554 4.40177 12.0273 4.2298 12.0273 4.01774V0.386866C12.0273 0.174731 11.8554 0.00284178 11.6432 0.00284178H8.52919C8.50722 0.00176651 8.45845 0 8.38656 0C7.84624 0 5.96813 0.106067 4.48456 1.47089C2.84078 2.98333 3.06928 4.79424 3.12389 5.10822V8.00776H0.384025C0.171889 8.00776 0 8.17965 0 8.39178V12.2969C0 12.509 0.171889 12.681 0.384025 12.681Z" fill="var(--fill-0, white)"/>
</g>
</svg>
