<svg width="24" height="24" viewBox="0 0 24 24" fill="none" xmlns="http://www.w3.org/2000/svg">
<g clip-path="url(#clip0_3290_11722)">
<path d="M6.27465 12.681H8.88456V23.4255C8.88456 23.6376 9.05645 23.8095 9.26858 23.8095H13.6938C13.9059 23.8095 14.0778 23.6376 14.0778 23.4255V12.7316H17.0781C17.2732 12.7316 17.4373 12.5852 17.4596 12.3914L17.9153 8.43579C17.9278 8.32696 17.8933 8.21797 17.8205 8.13633C17.7476 8.05461 17.6433 8.00783 17.5339 8.00783H14.078V5.52826C14.078 4.7808 14.4804 4.40177 15.2743 4.40177C15.3874 4.40177 17.5339 4.40177 17.5339 4.40177C17.746 4.40177 17.9179 4.2298 17.9179 4.01774V0.386866C17.9179 0.174731 17.746 0.00284178 17.5339 0.00284178H14.4198C14.3978 0.00176651 14.3491 0 14.2772 0C13.7369 0 11.8588 0.106067 10.3752 1.47089C8.73141 2.98333 8.9599 4.79424 9.01451 5.10822V8.00776H6.27465C6.06251 8.00776 5.89062 8.17965 5.89062 8.39178V12.2969C5.89062 12.509 6.06251 12.681 6.27465 12.681Z" fill="white"/>
</g>
<defs>
<clipPath id="clip0_3290_11722">
<rect width="23.8095" height="23.8095" fill="white"/>
</clipPath>
</defs>
</svg>
