<svg preserveAspectRatio="none" width="100%" height="100%" overflow="visible" style="display: block;" viewBox="0 0 63.6276 62.8959" fill="none" xmlns="http://www.w3.org/2000/svg">
<g id="Group">
<path id="Vector" d="M11.6914 57.625C11.817 57.8265 11.9448 58.0258 12.0748 58.223C13.6589 58.4916 17.2258 59.461 20.2134 62.8959C20.3478 62.7868 20.4866 62.6672 20.6254 62.535C17.1553 58.5504 13.0177 57.774 11.6914 57.625Z" fill="var(--fill-0, white)"/>
<path id="Vector_2" d="M9.88909 54.5096C9.98162 54.6838 10.0742 54.8558 10.1689 55.03C12.0835 54.9691 17.5342 55.3112 22.3614 60.4792C22.4672 60.3387 22.5751 60.1876 22.6875 60.0281C17.51 54.5558 11.6406 54.4131 9.88909 54.5096Z" fill="var(--fill-0, white)"/>
<path id="Vector_3" d="M13.2519 51.8693C11.2668 51.7434 9.68935 52.0267 8.7618 52.2659C8.84111 52.4317 8.92043 52.5954 8.99974 52.759C9.90085 52.5345 11.3968 52.2806 13.2431 52.4002C15.9949 52.5807 20.0973 53.6592 24.182 57.7278C24.2768 57.5704 24.3715 57.4067 24.4662 57.241C20.2868 53.1367 16.083 52.0477 13.2519 51.8672V51.8693Z" fill="var(--fill-0, white)"/>
<path id="Vector_4" d="M13.0807 49.3101C10.8202 49.5325 9.06209 50.2208 8.05302 50.7118C8.12573 50.8775 8.20064 51.0412 8.27334 51.2049C9.23394 50.7348 10.9502 50.0529 13.138 49.8368C16.2379 49.5325 20.9219 50.1473 25.78 54.7174C25.8615 54.5453 25.9408 54.3712 26.0201 54.1949C21.0607 49.6102 16.2666 48.9954 13.0807 49.308V49.3101Z" fill="var(--fill-0, white)"/>
<path id="Vector_5" d="M12.8734 46.9568C10.4168 47.5905 8.55071 48.7193 7.51301 49.4621C7.58571 49.6342 7.65842 49.8063 7.73112 49.9783C8.70494 49.2691 10.5688 48.1024 13.0188 47.4709C17.8813 46.2161 22.6204 47.5611 27.1017 51.466C27.1656 51.2834 27.2273 51.0988 27.289 50.9121C21.5937 46.0545 16.3214 46.0692 12.8734 46.9589V46.9568Z" fill="var(--fill-0, white)"/>
<path id="Vector_6" d="M18.3094 43.7165C13.1274 43.8634 8.88405 46.992 7.12149 48.5111C7.19199 48.6895 7.2647 48.8657 7.3374 49.0441C8.93032 47.6382 13.1539 44.3922 18.3314 44.2495C21.9116 44.1509 25.3133 45.5442 28.4353 48.3873C28.5234 48.23 28.6181 48.0684 28.7173 47.9089C25.5094 45.0259 22.0107 43.6116 18.3116 43.7165H18.3094Z" fill="var(--fill-0, white)"/>
<path id="Vector_7" d="M19.5635 40.8842C13.4033 41.2073 8.46817 45.6851 6.72323 47.4833C6.79593 47.6701 6.86643 47.8589 6.94134 48.0457C8.42851 46.4677 13.3813 41.7382 19.5965 41.4151C23.4191 41.2157 27.0742 42.7034 30.4715 45.8362C30.6258 45.7187 30.7844 45.6179 30.9452 45.5319C27.4069 42.2376 23.5755 40.6765 19.5635 40.8842Z" fill="var(--fill-0, white)"/>
<path id="Vector_8" d="M39.0496 48.9993C38.8998 48.8482 38.7456 48.7013 38.5891 48.5565C37.3708 47.4109 33.5945 43.8857 32.028 42.4232C30.7083 41.1915 29.2564 40.2011 27.7141 39.4814C22.7084 37.146 17.3635 37.7692 12.2609 41.288C9.36585 43.2835 7.30145 45.6987 6.45322 46.7751C6.52813 46.9765 6.60304 47.1779 6.68015 47.3794C7.30586 46.5526 9.45398 43.8773 12.6002 41.7119C17.5926 38.277 22.5939 37.6874 27.4674 39.9619C28.9567 40.6565 30.358 41.6133 31.6358 42.8051C33.2023 44.2676 36.9764 47.7927 38.1948 48.9384C38.3468 49.0811 38.4966 49.2238 38.642 49.3707C39.5145 50.2435 43.3635 53.7162 49.3143 53.7141C50.8191 53.7141 52.4605 53.4917 54.2209 52.9482C54.3046 52.7321 54.3927 52.5181 54.4808 52.3041C45.8377 55.2018 40.1204 50.0736 39.0474 49.0035L39.0496 48.9993Z" fill="var(--fill-0, white)"/>
<path id="Vector_9" d="M40.6135 54.1232C38.3221 52.7614 36.7446 51.0513 36.0462 50.2099C36.1828 50.5981 36.3547 51.0681 36.5596 51.6011C37.4254 52.4886 38.6835 53.6007 40.3006 54.5638C42.1425 55.6633 44.6762 56.6768 47.743 56.6768C49.3976 56.6768 51.2109 56.3789 53.1541 55.6403C53.251 55.4158 53.348 55.1849 53.4449 54.9499C48.9834 56.809 44.6696 56.532 40.6157 54.1232H40.6135Z" fill="var(--fill-0, white)"/>
<path id="Vector_10" d="M39.3133 57.5664C39.4609 57.8287 39.6108 58.0888 39.765 58.3448C41.0384 58.8526 42.9861 59.394 45.5021 59.394C47.3396 59.394 49.4811 59.1023 51.8804 58.2987C51.9994 58.0763 52.1206 57.8475 52.2417 57.6062C45.7599 59.9542 41.1794 58.4497 39.3133 57.5643V57.5664Z" fill="var(--fill-0, white)"/>
<path id="Vector_11" d="M42.9307 62.335C44.409 62.2972 47.3437 62.0664 50.2056 60.9459C50.3995 60.692 50.5978 60.4129 50.7983 60.1108C47.3966 61.6698 43.5652 61.8062 42.3644 61.8083C42.5517 61.9951 42.739 62.1713 42.9307 62.335Z" fill="var(--fill-0, white)"/>
<path id="Vector_12" d="M38.3992 44.419C37.3792 43.3069 36.4097 42.3501 35.4359 41.4919C29.7627 36.4938 26.6165 35.7552 26.3455 35.6985C21.6439 34.3325 16.5589 35.7908 11.6413 39.9161C8.96665 42.1612 7.0036 44.6456 6.11571 45.8542C6.19062 46.0641 6.26553 46.2718 6.34264 46.4795C7.05427 45.4765 9.10105 42.7551 12.0115 40.3147C15.3361 37.524 20.496 34.5465 26.1935 36.2084L26.2199 36.2147C26.2508 36.221 29.3837 36.8819 35.057 41.8801C36.0154 42.7257 36.9716 43.6699 37.9784 44.7673C39.0734 45.9612 41.3846 48.1749 44.5638 49.6018C46.5731 50.5019 48.6001 50.9531 50.6336 50.9531C52.2067 50.9531 53.7842 50.6782 55.3551 50.1389C55.4388 49.9291 55.5247 49.7109 55.6151 49.4801C47.1988 52.6527 40.7963 47.0293 38.3992 44.4169V44.419Z" fill="var(--fill-0, white)"/>
<path id="Vector_13" d="M38.4777 40.4043C37.9401 39.8125 37.4797 39.3362 37.028 38.9061C33.8003 35.8195 30.533 33.9059 29.6076 33.3939C29.438 33.2995 29.2727 33.2239 29.1075 33.161C23.4475 31.0312 17.5054 32.5483 11.9225 37.5443C8.90853 40.2427 6.74498 43.2957 5.75795 44.8128C5.83285 45.0331 5.90997 45.2555 5.98708 45.4758C6.79786 44.1854 9.04513 40.8491 12.3037 37.9325C17.794 33.0183 23.3792 31.5789 28.9004 33.6562C29.0414 33.7086 29.1802 33.7737 29.3256 33.8555C30.2355 34.3612 33.4522 36.2434 36.6314 39.2838C37.0721 39.7055 37.5237 40.1735 38.0547 40.7547C39.3414 42.1689 45.0433 47.956 52.045 47.956C53.4903 47.956 54.9885 47.7084 56.5175 47.1272C56.5991 46.9069 56.6828 46.6802 56.7687 46.4494C48.0022 50.1802 40.0111 42.0913 38.4777 40.4064V40.4043Z" fill="var(--fill-0, white)"/>
<path id="Vector_14" d="M44.7819 42.1407C41.4573 40.2354 39.4392 37.6755 39.4193 37.6503L39.4039 37.6315C34.9556 32.8998 30.5823 30.491 30.525 30.4616C24.8121 27.7422 18.4889 29.2446 12.2362 34.8072C8.84107 37.8287 6.31179 41.3035 5.16393 43.0073C5.23443 43.2297 5.30713 43.4542 5.37984 43.6766C6.35145 42.1931 8.98648 38.4225 12.6284 35.187C18.7775 29.7188 24.7173 28.2878 30.265 30.9295C30.3069 30.9526 34.5987 33.3132 38.9831 37.9777C39.1461 38.1833 41.14 40.6698 44.4823 42.5876C46.4343 43.7081 49.0804 44.7468 52.1913 44.7468C53.9252 44.7468 55.8023 44.4236 57.7808 43.6137C57.8579 43.3892 57.9372 43.1605 58.0166 42.9296C53.5903 44.8999 49.1421 44.6376 44.7863 42.1428L44.7819 42.1407Z" fill="var(--fill-0, white)"/>
<path id="Vector_15" d="M45.9614 39.7368C42.7976 38.1337 40.9602 35.8193 40.9315 35.7836C32.892 26.7043 27.3488 26.0329 26.9654 25.9972C21.973 25.1537 16.357 27.6423 10.7256 33.1922C7.81297 36.0648 5.57893 39.0842 4.4619 40.6978C4.528 40.9244 4.59409 41.1531 4.66019 41.3819C5.64282 39.9277 7.98702 36.6544 11.1332 33.5552C14.9668 29.7783 20.8119 25.4936 26.8773 26.5239H26.9015C26.9566 26.5323 32.5175 27.1114 40.4909 36.1152C40.568 36.2138 42.4077 38.5366 45.6772 40.1963C48.6009 41.6819 53.2298 42.8632 58.8898 40.2761C58.9647 40.0452 59.0396 39.8102 59.1123 39.5752C54.5715 41.8036 50.1475 41.8582 45.9592 39.7368H45.9614Z" fill="var(--fill-0, white)"/>
<path id="Vector_16" d="M45.2414 35.7491C41.3219 33.613 38.8763 30.4824 38.8521 30.4509L38.8344 30.4299C33.8089 25.1464 28.4662 23.0901 28.3979 23.0649C23.0793 21.3821 16.9875 23.6545 10.7789 29.6347C7.47846 32.8136 4.94478 36.2736 3.73963 38.0362C3.80132 38.2712 3.86301 38.5083 3.9247 38.7433C4.96461 37.1864 7.62388 33.4284 11.1843 29.9998C15.4012 25.9417 21.7772 21.5311 28.2062 23.5622C28.2591 23.5811 33.4807 25.5954 38.4114 30.774C38.6009 31.0174 41.0112 34.0473 44.9505 36.1981C48.4977 38.1348 53.9418 39.6414 60.1284 36.2338C60.1989 35.9904 60.2694 35.7428 60.3399 35.4973C55.3915 38.4265 50.3153 38.5104 45.2458 35.7449L45.2414 35.7491Z" fill="var(--fill-0, white)"/>
<path id="Vector_17" d="M50.2951 34.6926C44.4918 34.0925 40.7794 29.7616 40.7442 29.7175L40.731 29.7028C39.4091 28.3536 33.8327 23.2674 33.7777 23.217L33.7645 23.2044C29.8802 20.1095 25.7646 18.9512 21.5323 19.7591C15.718 20.8711 10.7145 25.5587 7.53973 29.2937C5.56346 31.6186 4.03223 33.8742 3.08485 35.3766C3.14434 35.6284 3.20383 35.8823 3.26332 36.1362C5.54583 32.4369 12.704 21.9916 21.6424 20.2815C25.6963 19.5052 29.6533 20.6236 33.3987 23.6073C33.6234 23.813 39.0147 28.7313 40.3168 30.0596C40.5525 30.3386 44.2649 34.6024 50.2312 35.2213C53.9105 35.6032 57.6251 34.4995 61.2847 31.9396C61.353 31.6689 61.4191 31.3983 61.4851 31.1255C57.7705 33.8742 54.0097 35.0766 50.2973 34.6926H50.2951Z" fill="var(--fill-0, white)"/>
<path id="Vector_18" d="M49.9064 31.764C43.9424 31.2226 40.2828 26.6043 40.2344 26.5434C31.5538 16.7906 25.1402 16.3269 24.7194 16.3059C19.9561 15.7226 14.4988 18.4713 8.49944 24.4703C5.81814 27.1519 3.62595 29.9175 2.30183 31.6989C2.3503 31.9423 2.39877 32.1857 2.44944 32.4312C5.64629 28.071 15.5717 15.7163 24.6621 16.8346H24.6864C24.7503 16.8388 31.2012 17.2123 39.8003 26.8729C39.9546 27.0701 43.6361 31.7241 49.8491 32.2927C53.9052 32.6641 58.0583 31.1911 62.2091 27.9136C62.2664 27.6366 62.3237 27.3576 62.3766 27.0785C58.1706 30.5575 53.978 32.1333 49.9064 31.7619V31.764Z" fill="var(--fill-0, white)"/>
<path id="Vector_19" d="M49.7003 28.7839C42.9475 28.5993 38.3869 23.1039 38.3406 23.0472C35.8752 20.0362 29.92 15.6948 29.6666 15.5123L29.6402 15.4955C26.2626 13.5608 22.689 13.051 19.0185 13.9784C10.675 16.0872 3.95742 25.1686 1.71456 28.5279C1.75862 28.7902 1.80489 29.0546 1.85336 29.319C3.64016 26.5513 10.5318 16.6726 19.1617 14.4925C22.6758 13.6049 26.0996 14.0917 29.3383 15.9445C29.6468 16.169 35.5271 20.481 37.8978 23.3745C37.944 23.4312 42.6589 29.1196 49.6761 29.3148C54.2565 29.4428 58.7643 27.2585 63.0958 22.8227C63.1376 22.5163 63.1795 22.21 63.217 21.9036C58.837 26.5933 54.2918 28.9077 49.6959 28.7839H49.7003Z" fill="var(--fill-0, white)"/>
<path id="Vector_20" d="M20.6894 10.9809H20.718C20.7753 10.9725 26.3736 10.4521 32.5889 16.6778C32.8334 16.9338 38.6433 22.9747 43.3295 24.8443C43.4485 24.8968 46.2994 26.1306 50.3379 25.7466C53.8652 25.4108 58.948 23.7091 63.5945 17.6661C63.61 17.3429 63.621 17.0219 63.6276 16.703C58.981 23.1048 53.8366 24.8716 50.3092 25.2136C46.414 25.5934 43.5917 24.3743 43.5542 24.3575C38.9738 22.5299 33.0604 16.3819 32.9965 16.3148C26.6711 9.97793 21.0683 10.4081 20.6674 10.4501C16.305 10.5067 11.458 13.2534 6.26281 18.6103C4.06181 20.8806 2.264 23.1615 1.12054 24.71C1.15799 24.9681 1.19545 25.2283 1.2329 25.4927C4.0552 21.6025 12.445 11.0795 20.6872 10.983L20.6894 10.9809Z" fill="var(--fill-0, white)"/>
<path id="Vector_21" d="M7.45039 13.4595C13.2338 8.27463 18.8013 6.70301 23.9854 8.78031C24.0449 8.80759 29.8988 11.5522 35.4972 17.8302C35.5478 17.889 40.5601 23.4159 47.6324 23.4159C47.9056 23.4159 48.181 23.4075 48.4586 23.3907C53.8124 23.0634 58.8842 19.6348 63.5505 13.1972C63.5307 12.9139 63.5043 12.6328 63.4778 12.3558C58.8092 18.999 53.7485 22.5304 48.43 22.8598C41.2057 23.3068 35.9752 17.5449 35.9246 17.4861C30.2469 11.1157 24.2917 8.32918 24.219 8.29561C18.8718 6.15326 12.9408 7.80671 7.06262 13.0797C4.04423 15.7865 1.7485 18.8185 0.59402 20.4741C0.624865 20.7468 0.65571 21.0259 0.688758 21.3092C1.64715 19.8866 4.09932 16.4684 7.457 13.4574L7.45039 13.4595Z" fill="var(--fill-0, white)"/>
<path id="Vector_22" d="M16.7616 5.12811C20.6018 4.63291 24.268 5.88769 27.6499 8.85047L35.6277 16.3875C35.6673 16.4295 39.4634 20.3575 45.3901 20.3575C45.65 20.3575 45.9144 20.3491 46.1832 20.3344C51.8609 20.0008 57.4834 16.2113 62.9099 9.07289C62.8526 8.84628 62.791 8.62176 62.7271 8.40144C57.3226 15.6342 51.7507 19.4699 46.159 19.8035C40.0495 20.1686 36.0815 16.0728 36.0331 16.0203L28.0376 8.46649C24.5191 5.3841 20.701 4.08316 16.6867 4.60144C8.9623 5.59813 2.51793 13.1646 0.195757 16.2323C0.215585 16.4966 0.237618 16.7736 0.261853 17.0632C2.11695 14.5159 8.75961 6.16047 16.7638 5.12811H16.7616Z" fill="var(--fill-0, white)"/>
<path id="Vector_23" d="M6.8828 6.52721C12.7918 2.22152 18.2359 1.45145 23.0653 4.23588C23.2548 4.36387 26.9892 6.91539 31.8429 11.7331C31.9002 11.796 37.2716 17.709 44.584 17.709C44.9696 17.709 45.3595 17.6922 45.7539 17.6586C51.4977 17.1571 56.803 13.055 61.5244 5.46757C61.4231 5.28502 61.3173 5.10457 61.2094 4.92831C56.543 12.5304 51.328 16.6368 45.7076 17.1299C38.0912 17.7971 32.3254 11.454 32.2571 11.3784C27.247 6.40551 23.4178 3.82252 23.3804 3.79734L23.365 3.78684C18.3857 0.910091 12.5649 1.71583 6.5347 6.11385C3.61545 8.24361 1.29328 10.749 0.00660934 12.266C0.00220293 12.4528 0 12.6395 0 12.8305C0 12.8305 0.00220219 12.9291 0.011015 13.12C1.13465 11.7415 3.63528 8.89828 6.88501 6.53141L6.8828 6.52721Z" fill="var(--fill-0, white)"/>
<path id="Vector_24" d="M10.5744 1.01479L10.5105 0.486017C6.32661 0.943443 2.56354 5.07707 0.512361 7.79436C0.419827 8.20352 0.338308 8.62947 0.270009 9.07431C2.02376 6.58994 6.12612 1.49949 10.5744 1.01479Z" fill="var(--fill-0, white)"/>
<path id="Vector_25" d="M43.4393 14.6939C34.86 15.0926 28.3297 6.59874 28.257 6.50012C23.421 0.790677 19.29 0.49482 19.1159 0.484329L19.0829 1.0152C19.1226 1.01729 23.139 1.30686 27.812 6.82326C27.8781 6.90929 34.2762 15.2395 42.8555 15.2395C43.056 15.2395 43.2609 15.2353 43.4635 15.2248C49.3307 14.9541 54.7924 10.8478 59.7034 3.02116C59.5712 2.88897 59.4324 2.76307 59.2936 2.63717C54.4663 10.3715 49.1346 14.4275 43.4393 14.6918V14.6939Z" fill="var(--fill-0, white)"/>
<path id="Vector_26" d="M40.0945 12.3165C40.2531 12.3228 40.4096 12.3249 40.5682 12.3249C46.2392 12.3249 51.8464 8.6046 57.2486 1.25849C57.0834 1.17456 56.9138 1.09482 56.7419 1.01928C51.322 8.36539 45.7303 11.9849 40.1187 11.7835C33.2139 11.5338 28.0959 5.46556 26.2165 2.86788C25.9191 2.76296 25.6129 2.64966 25.3066 2.52795C26.7365 4.63883 32.2908 12.0311 40.0967 12.3165H40.0945Z" fill="var(--fill-0, white)"/>
<path id="Vector_27" d="M38.766 9.70073C38.907 9.70493 39.048 9.70913 39.1912 9.70913C44.2035 9.70913 49.2511 6.52602 54.2083 0.247946C54.0056 0.210176 53.8007 0.174506 53.5914 0.14513C48.6694 6.3078 43.6924 9.34402 38.7925 9.16987C33.7449 8.99151 30.0678 5.37197 28.5189 3.53387C28.2303 3.46672 27.9351 3.39538 27.6354 3.31145C28.8758 4.91034 32.9297 9.4909 38.7682 9.70073H38.766Z" fill="var(--fill-0, white)"/>
<path id="Vector_28" d="M37.9642 6.84462C42.0181 6.84462 46.1557 4.54279 50.2691 0C50.0114 0.0125897 49.7492 0.0272785 49.4804 0.0482613C45.6005 4.20497 41.7295 6.31165 37.9642 6.31165C37.9532 6.31165 37.94 6.31165 37.929 6.31165C34.9525 6.30116 32.7294 4.93308 31.5507 3.99095C31.2445 3.96996 30.9294 3.94059 30.6055 3.90072C31.5816 4.81977 34.1483 6.82783 37.9202 6.84252C37.9356 6.84252 37.951 6.84252 37.9664 6.84252L37.9642 6.84462Z" fill="var(--fill-0, white)"/>
<path id="Vector_29" d="M44.604 0.88428C44.1479 0.997588 43.683 1.11929 43.2072 1.25568C41.0855 2.7014 39.2061 3.08538 37.8512 3.10217C37.708 3.15882 37.567 3.21338 37.4215 3.27213C37.4215 3.27213 37.1351 3.39803 36.5997 3.54911C36.9302 3.59947 37.3202 3.63514 37.763 3.63514C39.4507 3.63514 41.894 3.11476 44.604 0.88428Z" fill="var(--fill-0, white)"/>
</g>
</svg>
