<svg preserveAspectRatio="none" width="100%" height="100%" overflow="visible" style="display: block;" viewBox="0 0 206.909 21.3669" fill="none" xmlns="http://www.w3.org/2000/svg">
<g id="Group">
<path id="Vector" d="M33.275 0.236258L25.9427 21.1247H22.6533L16.6694 4.44333L10.6855 21.1247H7.33226L0 0.236258H3.22769L9.1499 17.2156L15.3233 0.236258H18.2051L24.2529 17.3058L30.3007 0.236258H33.2772H33.275Z" fill="var(--fill-0, white)"/>
<path id="Vector_2" d="M52.3221 15.9021H40.6671L38.2546 21.1247H35.0269L44.959 0.236258H48.0611L58.024 21.1247H54.7346L52.3221 15.9021ZM51.2249 13.5142L46.4946 3.27878L41.7643 13.5142H51.2271H51.2249Z" fill="var(--fill-0, white)"/>
<path id="Vector_3" d="M66.4895 2.83184H58.97V0.236258H77.1112V2.83184H69.5916V21.1247H66.4895V2.83184Z" fill="var(--fill-0, white)"/>
<path id="Vector_4" d="M98.3789 18.5274V21.123H82.4608V0.23457H97.9383V2.83015H85.5938V9.24672H96.5922V11.7835H85.5938V18.5274H98.3768H98.3789Z" fill="var(--fill-0, white)"/>
<path id="Vector_5" d="M120.06 21.1251L115.33 14.7086C114.892 14.7379 114.422 14.7673 113.951 14.7673H108.531V21.123H105.398V0.23457H113.951C119.653 0.23457 123.101 2.97913 123.101 7.51563C123.101 10.7386 121.347 13.0656 118.276 14.1106L123.478 21.123H120.063L120.06 21.1251ZM119.966 7.51773C119.966 4.53396 117.866 2.83225 113.856 2.83225H108.529V12.2326H113.856C117.866 12.2326 119.966 10.5015 119.966 7.51773Z" fill="var(--fill-0, white)"/>
<path id="Vector_6" d="M128.113 18.7377L129.271 16.4107C130.9 17.8124 133.689 18.8279 136.509 18.8279C140.301 18.8279 141.929 17.4263 141.929 15.605C141.929 10.5019 128.644 13.7249 128.644 5.96753C128.644 2.74456 131.276 0 137.04 0C139.609 0 142.273 0.656762 144.09 1.85069L143.057 4.23854C141.147 3.07399 138.983 2.53683 137.042 2.53683C133.314 2.53683 131.715 4.02871 131.715 5.85002C131.715 10.9531 145 7.75947 145 15.4287C145 18.6223 142.306 21.3669 136.509 21.3669C133.156 21.3669 129.866 20.2925 128.113 18.7419V18.7377Z" fill="var(--fill-0, white)"/>
<path id="Vector_7" d="M151.516 0.236258H154.649V21.1247H151.516V0.236258Z" fill="var(--fill-0, white)"/>
<path id="Vector_8" d="M163.173 0.236668H172.416C179.466 0.236668 184.26 4.47311 184.26 10.6798C184.26 16.8866 179.466 21.123 172.416 21.123H163.173V0.23457V0.236668ZM172.228 18.5274C177.648 18.5274 181.127 15.3653 181.127 10.6798C181.127 5.99437 177.648 2.83225 172.228 2.83225H166.306V18.5274H172.228Z" fill="var(--fill-0, white)"/>
<path id="Vector_9" d="M206.909 18.5274V21.123H190.991V0.23457H206.469V2.83015H194.124V9.24672H205.122V11.7835H194.124V18.5274H206.907H206.909Z" fill="var(--fill-0, white)"/>
</g>
</svg>
