<svg preserveAspectRatio="none" width="100%" height="100%" overflow="visible" style="display: block;" viewBox="0 0 206.914 12.9464" fill="none" xmlns="http://www.w3.org/2000/svg">
<g id="Group">
<path id="Vector" d="M0 0.143445H5.60274C9.87475 0.143445 12.7808 2.71175 12.7808 6.47398C12.7808 10.2362 9.87475 12.8045 5.60274 12.8045H0V0.145546V0.143445ZM5.48818 11.2308C8.77315 11.2308 10.8816 9.31297 10.8816 6.47398C10.8816 3.635 8.77315 1.71716 5.48818 1.71716H1.89916V11.2287H5.48818V11.2308Z" fill="var(--fill-0, white)"/>
<path id="Vector_2" d="M33.8788 11.2304V12.8041H24.2332V0.14513H33.6144V1.71885H26.1323V5.60697H32.797V7.14502H26.1323V11.2325H33.8788V11.2304Z" fill="var(--fill-0, white)"/>
<path id="Vector_3" d="M56.9288 0.141755V12.8007H55.3711L47.3956 3.36053V12.8007H45.4964V0.141755H47.0541L55.0297 9.58196V0.141755H56.9288Z" fill="var(--fill-0, white)"/>
<path id="Vector_4" d="M72.1056 1.71547H67.5494V0.141755H78.5434V1.71547H73.9849V12.8007H72.1056V1.71547Z" fill="var(--fill-0, white)"/>
<path id="Vector_5" d="M96.9599 9.63651H89.8964L88.4335 12.8007H86.477L92.4962 0.141755H94.3755L100.414 12.8007H98.4206L96.9577 9.63651H96.9599ZM96.2967 8.19079L93.4303 1.98825L90.564 8.19079H96.2989H96.2967Z" fill="var(--fill-0, white)"/>
<path id="Vector_6" d="M110.94 0.141755H112.839V11.227H120.037V12.8007H110.942V0.141755H110.94Z" fill="var(--fill-0, white)"/>
<path id="Vector_7" d="M129.436 6.47322C129.436 2.72987 132.436 0 136.481 0C138.533 0 140.317 0.669357 141.533 1.9703L140.299 3.10966C139.275 2.07941 138.021 1.60939 136.558 1.60939C133.558 1.60939 131.337 3.67201 131.337 6.47322C131.337 9.27443 133.558 11.3371 136.558 11.3371C138.021 11.3371 139.273 10.8482 140.299 9.81789L141.533 10.9573C140.317 12.2603 138.533 12.9464 136.464 12.9464C132.438 12.9464 129.438 10.2166 129.438 6.47112L129.436 6.47322Z" fill="var(--fill-0, white)"/>
<path id="Vector_8" d="M160.939 9.63651H153.875L152.412 12.8007H150.456L156.475 0.141755H158.354L164.393 12.8007H162.399L160.936 9.63651H160.939ZM160.275 8.19079L157.409 1.98825L154.543 8.19079H160.278H160.275Z" fill="var(--fill-0, white)"/>
<path id="Vector_9" d="M183.8 12.8041L180.931 8.91598C180.664 8.93486 180.38 8.95165 180.096 8.95165H176.811V12.8041H174.912V0.14513H180.096C183.553 0.14513 185.641 1.80907 185.641 4.55783C185.641 6.51134 184.577 7.92139 182.718 8.55507L185.871 12.8041H183.802H183.8ZM183.742 4.55573C183.742 2.74701 182.471 1.71675 180.039 1.71675H176.811V7.4136H180.039C182.469 7.4136 183.742 6.36445 183.742 4.55573Z" fill="var(--fill-0, white)"/>
<path id="Vector_10" d="M206.914 11.2304V12.8041H197.269V0.14513H206.65V1.71885H199.168V5.60697H205.832V7.14502H199.168V11.2325H206.914V11.2304Z" fill="var(--fill-0, white)"/>
</g>
</svg>
