<svg preserveAspectRatio="none" width="100%" height="100%" overflow="visible" style="display: block;" viewBox="0 0 180.961 82.2777" fill="none" xmlns="http://www.w3.org/2000/svg">
<path id="Vector 1" d="M180.895 64.1569C181.092 63.6411 180.834 63.063 180.318 62.8656L171.912 59.6499C171.396 59.4526 170.818 59.7108 170.621 60.2266C170.423 60.7424 170.682 61.3206 171.197 61.5179L178.669 64.3763L175.811 71.8482C175.614 72.3641 175.872 72.9422 176.388 73.1395C176.903 73.3368 177.482 73.0787 177.679 72.5628L180.895 64.1569ZM0.960587 0.277979L0 0.555957C0.184699 1.19421 0.3785 1.83896 0.581465 2.4897L1.53611 2.19195L2.49075 1.8942C2.29184 1.25645 2.10201 0.624885 1.92117 0L0.960587 0.277979ZM2.82062 6.03913L1.87842 6.37418C2.3267 7.63483 2.8077 8.91324 3.32182 10.2061L4.25104 9.83654L5.18026 9.46702C4.67514 8.19684 4.20281 6.94141 3.76282 5.70408L2.82062 6.03913ZM5.8183 13.583L4.90266 13.985C5.44377 15.2174 6.01428 16.4598 6.61454 17.7094L7.51593 17.2764L8.41732 16.8434C7.82693 15.6144 7.26593 14.3927 6.73394 13.181L5.8183 13.583ZM9.32656 20.8899L8.44007 21.3527C9.06228 22.5446 9.71142 23.7407 10.3878 24.9386L11.2586 24.4469L12.1293 23.9552C11.4638 22.7766 10.8252 21.5998 10.2131 20.4272L9.32656 20.8899ZM13.31 27.9443L12.4559 28.4644C13.1591 29.6193 13.8878 30.7738 14.6424 31.9258L15.4789 31.3778L16.3155 30.8299C15.573 29.6965 14.856 28.5606 14.1642 27.4243L13.31 27.9443ZM17.7567 34.7325L16.9388 35.3079C17.7153 36.4117 18.5161 37.5112 19.3415 38.6048L20.1396 38.0024L20.9378 37.3999C20.1261 36.3244 19.3384 35.2429 18.5746 34.1572L17.7567 34.7325ZM22.6365 41.1966L21.8592 41.8257C22.7127 42.8802 23.5899 43.9271 24.491 44.9648L25.246 44.3092L26.0011 43.6535C25.1154 42.6335 24.253 41.6042 23.4137 40.5674L22.6365 41.1966ZM27.9529 47.3189L27.2212 48.0005C28.1441 48.9912 29.0899 49.9715 30.0588 50.9399L30.7657 50.2326L31.4726 49.5253C30.5208 48.574 29.5915 47.6107 28.6846 46.6372L27.9529 47.3189ZM33.6877 53.0493L33.0069 53.7817C34.0002 54.7049 35.0158 55.6151 36.0539 56.5109L36.7072 55.7538L37.3605 54.9967C36.3413 54.1172 35.344 53.2234 34.3685 52.3168L33.6877 53.0493ZM39.8202 58.3401L39.1957 59.1212C40.2562 59.9691 41.3384 60.8017 42.4426 61.6176L43.0369 60.8133L43.6311 60.0091C42.5476 59.2084 41.4855 58.3913 40.4447 57.5591L39.8202 58.3401ZM46.3437 63.1597L45.7809 63.9863C46.9 64.7482 48.0401 65.4929 49.2014 66.2191L49.7316 65.3712L50.2617 64.5233C49.1227 63.8111 48.0043 63.0806 46.9065 62.3331L46.3437 63.1597ZM53.2152 67.4553L52.7189 68.3234C53.8952 68.996 55.0919 69.6497 56.3093 70.2831L56.7709 69.3961L57.2325 68.509C56.0388 67.8878 54.8652 67.2468 53.7116 66.5872L53.2152 67.4553ZM60.397 71.1926L59.9709 72.0973C61.2011 72.6766 62.451 73.2356 63.7209 73.7729L64.1106 72.852L64.5003 71.931C63.255 71.4041 62.0293 70.856 60.8231 70.2879L60.397 71.1926ZM67.8598 74.3518L67.5068 75.2874C68.774 75.7656 70.0599 76.2225 71.3648 76.6571L71.6808 75.7084L71.9967 74.7596C70.7169 74.3333 69.4556 73.8852 68.2129 73.4163L67.8598 74.3518ZM75.556 76.9154L75.2772 77.8758C76.572 78.2516 77.8844 78.6057 79.2147 78.9371L79.4565 77.9668L79.6982 76.9965C78.3928 76.6712 77.105 76.3238 75.8348 75.9551L75.556 76.9154ZM83.4316 78.8772L83.2269 79.856C84.5406 80.1307 85.8708 80.3837 87.2176 80.614L87.3862 79.6283L87.5547 78.6426C86.232 78.4164 84.9259 78.1681 83.6363 77.8983L83.4316 78.8772ZM91.4081 80.2408L91.2755 81.2319C92.6085 81.4103 93.9571 81.5668 95.3214 81.7007L95.4191 80.7055L95.5168 79.7103C94.1757 79.5786 92.8504 79.4248 91.5407 79.2496L91.4081 80.2408ZM99.4657 81.0321L99.4023 82.0301C100.746 82.1155 102.105 82.1792 103.478 82.2207L103.508 81.2211L103.538 80.2216C102.187 80.1808 100.851 80.1181 99.5291 80.0342L99.4657 81.0321ZM107.562 81.2777L107.564 82.2777C108.911 82.2749 110.271 82.2509 111.645 82.2052L111.611 81.2058L111.578 80.2063C110.225 80.2513 108.886 80.2749 107.56 80.2777L107.562 81.2777ZM115.661 81.0097L115.725 82.0077C117.066 81.9226 118.42 81.8171 119.787 81.6907L119.695 80.6949L119.603 79.6992C118.255 79.8239 116.92 79.9279 115.598 80.0117L115.661 81.0097ZM123.736 80.2636L123.856 81.2564C125.186 81.0957 126.528 80.9154 127.881 80.7152L127.735 79.7259L127.588 78.7367C126.252 78.9344 124.928 79.1123 123.616 79.2708L123.736 80.2636ZM131.767 79.0752L131.939 80.0603C133.251 79.8311 134.575 79.5832 135.909 79.3164L135.713 78.3358L135.516 77.3552C134.198 77.6189 132.891 77.8637 131.594 78.0902L131.767 79.0752ZM139.723 77.4829L139.943 78.4585C141.24 78.1666 142.546 77.857 143.862 77.5293L143.621 76.5589L143.379 75.5885C142.077 75.9126 140.786 76.2188 139.504 76.5073L139.723 77.4829ZM147.559 75.532L147.822 76.4969C149.119 76.1436 150.425 75.773 151.74 75.3848L151.457 74.4257L151.174 73.4666C149.872 73.8509 148.579 74.2176 147.296 74.5672L147.559 75.532ZM155.312 73.2458L155.614 74.199C156.915 73.7868 158.224 73.3576 159.542 72.911L159.221 71.9639L158.9 71.0167C157.594 71.4591 156.298 71.8843 155.01 72.2925L155.312 73.2458ZM162.99 70.6486L163.328 71.5897C164.596 71.1342 165.872 70.6627 167.157 70.1752L166.802 69.2403L166.447 68.3054C165.173 68.7887 163.908 69.256 162.652 69.7075L162.99 70.6486ZM170.602 67.7599L170.973 68.6886C172.207 68.1957 173.449 67.6881 174.698 67.1656L174.312 66.243L173.926 65.3205C172.687 65.8389 171.455 66.3424 170.231 66.8313L170.602 67.7599ZM178.066 64.6367L178.467 65.553C179.099 65.2767 179.733 64.9966 180.368 64.7127L179.961 63.7996L179.553 62.8866C178.922 63.1683 178.293 63.4463 177.666 63.7205L178.066 64.6367Z" fill="var(--stroke-0, #5E5D5F)"/>
</svg>
