<svg preserveAspectRatio="none" width="100%" height="100%" overflow="visible" style="display: block;" viewBox="0 0 32.6667 33.3333" fill="none" xmlns="http://www.w3.org/2000/svg">
<path id="Vector" d="M1.77273 9.1819C4.51515 3.73487 10.1514 0 16.6667 0C21.159 0 24.9317 1.65158 27.8182 4.34092L23.0378 9.12123C21.3107 7.46975 19.1135 6.62878 16.6667 6.62878C12.3257 6.62878 8.6514 9.56062 7.34092 13.5C7.0075 14.5 6.8181 15.5682 6.8181 16.6667C6.8181 17.7652 7.0075 18.8333 7.34092 19.8333C8.6514 23.7727 12.3257 26.7045 16.6667 26.7045C18.909 26.7045 20.8182 26.1137 22.3107 25.1137C24.0757 23.9318 25.25 22.1667 25.6363 20.0833H16.6667V13.6363H32.3635C32.5607 14.7272 32.6667 15.8637 32.6667 17.0455C32.6667 22.1212 30.8485 26.3938 27.6968 29.2955C24.9393 31.841 21.1667 33.3333 16.6667 33.3333C10.1514 33.3333 4.51515 29.5985 1.77273 24.1515C0.643967 21.9015 0 19.356 0 16.6667C0 13.9773 0.643967 11.4318 1.77273 9.1819Z" fill="var(--fill-0, #D8A444)"/>
</svg>
