<svg preserveAspectRatio="none" width="100%" height="100%" overflow="visible" style="display: block;" viewBox="0 0 1952 311" fill="none" xmlns="http://www.w3.org/2000/svg">
<path id="Vector" d="M1577.98 283.997C1384.01 272.771 1259.92 191.761 1258.74 190.937L1258.3 190.662C1214.12 165.425 1027.73 70.2858 1025.89 69.3438L1025.45 69.1083C895.621 11.216 758.06 -10.4495 616.595 4.66141C422.257 25.4634 255.019 113.146 148.902 183.009C82.8461 226.497 31.6656 268.69 0 296.792C1.98831 301.502 3.97665 306.251 5.96495 311C82.2569 241.804 321.516 46.4224 620.278 14.4344C755.777 -0.0877009 888.036 20.832 1013.23 76.6441C1020.74 80.4905 1200.94 172.49 1244.46 197.335C1252.34 202.555 1376.42 282.309 1575.84 293.887C1698.82 301.031 1822.98 280.386 1945.3 232.502C1947.58 227.439 1949.79 222.376 1952 217.273C1827.84 268.69 1702.14 291.179 1578.05 283.997H1577.98Z" fill="var(--fill-0, #D8A444)" fill-opacity="0.05"/>
</svg>
