<svg preserveAspectRatio="none" width="100%" height="100%" overflow="visible" style="display: block;" viewBox="0 0 24.7619 24.7619" fill="none" xmlns="http://www.w3.org/2000/svg">
<path id="Vector" d="M12.381 6.66667C11.2508 6.66667 10.146 7.0018 9.20627 7.6297C8.26656 8.25759 7.53414 9.15004 7.10164 10.1942C6.66914 11.2383 6.55598 12.3873 6.77647 13.4958C6.99695 14.6042 7.54119 15.6224 8.34034 16.4216C9.1395 17.2207 10.1577 17.765 11.2662 17.9854C12.3746 18.2059 13.5236 18.0928 14.5677 17.6603C15.6119 17.2278 16.5043 16.4954 17.1322 15.5556C17.7601 14.6159 18.0952 13.5111 18.0952 12.381C18.0937 10.8659 17.4911 9.41338 16.4198 8.34208C15.3485 7.27079 13.896 6.66824 12.381 6.66667ZM12.381 16.1905C11.6275 16.1905 10.891 15.9671 10.2645 15.5485C9.63802 15.1299 9.14975 14.5349 8.86141 13.8388C8.57308 13.1427 8.49764 12.3767 8.64463 11.6378C8.79162 10.8988 9.15444 10.22 9.68721 9.68721C10.22 9.15444 10.8988 8.79162 11.6378 8.64463C12.3767 8.49764 13.1427 8.57308 13.8388 8.86141C14.5349 9.14975 15.1299 9.63802 15.5485 10.2645C15.9671 10.891 16.1905 11.6275 16.1905 12.381C16.1905 13.3913 15.7891 14.3603 15.0747 15.0747C14.3603 15.7891 13.3913 16.1905 12.381 16.1905ZM18.0952 0H6.66667C4.89914 0.00189074 3.20454 0.704877 1.95471 1.95471C0.704877 3.20454 0.00189074 4.89914 0 6.66667V18.0952C0.00189074 19.8628 0.704877 21.5574 1.95471 22.8072C3.20454 24.057 4.89914 24.76 6.66667 24.7619H18.0952C19.8628 24.76 21.5574 24.057 22.8072 22.8072C24.057 21.5574 24.76 19.8628 24.7619 18.0952V6.66667C24.76 4.89914 24.057 3.20454 22.8072 1.95471C21.5574 0.704877 19.8628 0.00189074 18.0952 0ZM22.8571 18.0952C22.8571 19.3582 22.3554 20.5694 21.4624 21.4624C20.5694 22.3554 19.3582 22.8571 18.0952 22.8571H6.66667C5.40373 22.8571 4.19252 22.3554 3.29949 21.4624C2.40646 20.5694 1.90476 19.3582 1.90476 18.0952V6.66667C1.90476 5.40373 2.40646 4.19252 3.29949 3.29949C4.19252 2.40646 5.40373 1.90476 6.66667 1.90476H18.0952C19.3582 1.90476 20.5694 2.40646 21.4624 3.29949C22.3554 4.19252 22.8571 5.40373 22.8571 6.66667V18.0952ZM20 6.19048C20 6.47302 19.9162 6.74922 19.7592 6.98415C19.6023 7.21908 19.3792 7.40218 19.1181 7.5103C18.8571 7.61843 18.5698 7.64672 18.2927 7.5916C18.0156 7.53648 17.7611 7.40042 17.5613 7.20063C17.3615 7.00084 17.2254 6.74629 17.1703 6.46918C17.1152 6.19206 17.1435 5.90482 17.2516 5.64379C17.3597 5.38275 17.5428 5.15964 17.7778 5.00266C18.0127 4.84569 18.2889 4.76191 18.5714 4.76191C18.9503 4.76191 19.3137 4.91241 19.5816 5.18032C19.8495 5.44823 20 5.8116 20 6.19048Z" fill="var(--fill-0, white)"/>
</svg>
