<svg xmlns="http://www.w3.org/2000/svg" width="37" height="37" viewBox="0 0 37 37" fill="none">
  <path d="M18.2139 9.84375C16.5513 9.84375 14.926 10.3386 13.5436 11.2657C12.1611 12.1929 11.0837 13.5106 10.4474 15.0524C9.81114 16.5941 9.64467 18.2906 9.96903 19.9273C10.2934 21.564 11.094 23.0675 12.2697 24.2475C13.4454 25.4275 14.9432 26.2311 16.5739 26.5566C18.2046 26.8822 19.8949 26.7151 21.4309 26.0765C22.967 25.4379 24.2799 24.3564 25.2036 22.9689C26.1273 21.5813 26.6204 19.95 26.6204 18.2812C26.6181 16.0442 25.7316 13.8994 24.1556 12.3176C22.5796 10.7358 20.4428 9.84608 18.2139 9.84375ZM18.2139 23.9062C17.1055 23.9062 16.022 23.5763 15.1004 22.9583C14.1787 22.3402 13.4604 21.4617 13.0363 20.4338C12.6121 19.406 12.5011 18.275 12.7173 17.1839C12.9336 16.0927 13.4673 15.0904 14.2511 14.3038C15.0349 13.5171 16.0335 12.9814 17.1206 12.7643C18.2077 12.5473 19.3346 12.6587 20.3586 13.0844C21.3827 13.5102 22.2579 14.2311 22.8737 15.1562C23.4895 16.0812 23.8182 17.1687 23.8182 18.2812C23.8182 19.7731 23.2278 21.2038 22.1768 22.2587C21.1258 23.3136 19.7003 23.9062 18.2139 23.9062ZM26.6204 0H9.80751C7.20725 0.0027918 4.71429 1.0408 2.87562 2.88625C1.03696 4.73171 0.00278152 7.23388 0 9.84375V26.7188C0.00278152 29.3286 1.03696 31.8308 2.87562 33.6763C4.71429 35.5217 7.20725 36.5597 9.80751 36.5625H26.6204C29.2206 36.5597 31.7136 35.5217 33.5523 33.6763C35.3909 31.8308 36.4251 29.3286 36.4279 26.7188V9.84375C36.4251 7.23388 35.3909 4.73171 33.5523 2.88625C31.7136 1.0408 29.2206 0.0027918 26.6204 0ZM33.6257 26.7188C33.6257 28.5836 32.8877 30.372 31.5739 31.6906C30.2602 33.0092 28.4783 33.75 26.6204 33.75H9.80751C7.94957 33.75 6.16773 33.0092 4.85397 31.6906C3.54021 30.372 2.80214 28.5836 2.80214 26.7188V9.84375C2.80214 7.97895 3.54021 6.19052 4.85397 4.87191C6.16773 3.55329 7.94957 2.8125 9.80751 2.8125H26.6204C28.4783 2.8125 30.2602 3.55329 31.5739 4.87191C32.8877 6.19052 33.6257 7.97895 33.6257 9.84375V26.7188ZM29.4225 9.14062C29.4225 9.55782 29.2993 9.96565 29.0683 10.3125C28.8374 10.6594 28.5092 10.9298 28.1252 11.0894C27.7411 11.2491 27.3186 11.2909 26.9109 11.2095C26.5032 11.1281 26.1288 10.9272 25.8348 10.6322C25.5409 10.3372 25.3408 9.96132 25.2597 9.55214C25.1786 9.14297 25.2202 8.71884 25.3793 8.3334C25.5383 7.94796 25.8077 7.61852 26.1533 7.38674C26.4989 7.15496 26.9053 7.03125 27.3209 7.03125C27.8783 7.03125 28.4128 7.25349 28.807 7.64907C29.2011 8.04466 29.4225 8.58118 29.4225 9.14062Z" fill="#D8A444"/>
</svg>
