<svg width="26" height="26" viewBox="0 0 26 26" fill="none" xmlns="http://www.w3.org/2000/svg">
<path d="M11.5812 4.95354C11.6544 5.02667 11.7125 5.11353 11.7521 5.20913C11.7918 5.30473 11.8122 5.4072 11.8122 5.51069C11.8122 5.61418 11.7918 5.71666 11.7521 5.81226C11.7125 5.90786 11.6544 5.99471 11.5812 6.06785L5.83739 11.8107L21.2616 11.8107C21.4704 11.8107 21.6707 11.8937 21.8184 12.0413C21.9661 12.189 22.0491 12.3893 22.0491 12.5982C22.0491 12.807 21.9661 13.0074 21.8184 13.155C21.6707 13.3027 21.4704 13.3857 21.2616 13.3857L5.83739 13.3857L11.5812 19.1285C11.729 19.2763 11.812 19.4767 11.812 19.6857C11.812 19.8947 11.729 20.0951 11.5812 20.2428C11.4335 20.3906 11.233 20.4736 11.0241 20.4736C10.8151 20.4736 10.6147 20.3906 10.4669 20.2428L3.3794 13.1554C3.30618 13.0822 3.2481 12.9954 3.20847 12.8998C3.16884 12.8042 3.14844 12.7017 3.14844 12.5982C3.14844 12.4947 3.16884 12.3922 3.20847 12.2966C3.2481 12.201 3.30618 12.1142 3.3794 12.041L10.4669 4.95354C10.54 4.88032 10.6269 4.82223 10.7225 4.7826C10.8181 4.74297 10.9206 4.72257 11.0241 4.72257C11.1275 4.72257 11.23 4.74297 11.3256 4.7826C11.4212 4.82223 11.5081 4.88032 11.5812 4.95354Z" fill="#5E5D5F"/>
</svg>
