<svg preserveAspectRatio="none" width="100%" height="100%" overflow="visible" style="display: block;" viewBox="0 0 47.1629 55.4771" fill="none" xmlns="http://www.w3.org/2000/svg">
<g id="Group">
<path id="Vector" d="M8.66406 50.8281C8.75715 51.0058 8.85188 51.1816 8.94824 51.3556C10.1225 51.5925 12.7666 52.4475 14.9812 55.4771C15.0808 55.3809 15.1837 55.2754 15.2866 55.1588C12.7143 51.6443 9.64723 50.9595 8.66406 50.8281Z" fill="var(--fill-0, #D8A444)"/>
<path id="Vector_2" d="M7.32813 48.0772C7.39672 48.2308 7.46531 48.3826 7.53554 48.5362C8.95477 48.4825 12.9952 48.7842 16.5735 53.3425C16.6519 53.2185 16.7319 53.0852 16.8152 52.9446C12.9773 48.1179 8.6265 47.9921 7.32813 48.0772Z" fill="var(--fill-0, #D8A444)"/>
<path id="Vector_3" d="M9.8206 45.75C8.34911 45.6389 7.17975 45.8888 6.49219 46.0997C6.55098 46.2459 6.60978 46.3903 6.66857 46.5347C7.33654 46.3366 8.44546 46.1127 9.81406 46.2182C11.8539 46.3774 14.8949 47.3286 17.9228 50.9171C17.993 50.7783 18.0632 50.634 18.1334 50.4878C15.0353 46.8678 11.9192 45.9073 9.8206 45.7481V45.75Z" fill="var(--fill-0, #D8A444)"/>
<path id="Vector_4" d="M9.69565 43.4919C8.02001 43.6881 6.71674 44.2951 5.96875 44.7282C6.02264 44.8744 6.07817 45.0187 6.13207 45.1631C6.84413 44.7485 8.11637 44.1471 9.73811 43.9564C12.036 43.6881 15.5081 44.2303 19.1093 48.2612C19.1697 48.1094 19.2285 47.9558 19.2873 47.8004C15.611 43.7566 12.0572 43.2143 9.69565 43.4901V43.4919Z" fill="var(--fill-0, #D8A444)"/>
<path id="Vector_5" d="M9.54382 41.4165C7.72284 41.9754 6.33954 42.971 5.57031 43.6262C5.62421 43.7779 5.6781 43.9297 5.732 44.0815C6.45386 43.4559 7.83552 42.4269 9.65161 41.8699C13.256 40.7631 16.769 41.9495 20.0909 45.3936C20.1382 45.2326 20.1839 45.0697 20.2297 44.905C16.0079 40.6207 12.0997 40.6336 9.54382 41.4183V41.4165Z" fill="var(--fill-0, #D8A444)"/>
<path id="Vector_6" d="M13.5745 38.5595C9.73328 38.689 6.58779 41.4484 5.28125 42.7883C5.33351 42.9456 5.38741 43.1011 5.4413 43.2584C6.62208 42.0184 9.75288 39.1554 13.5908 39.0296C16.2447 38.9426 18.7664 40.1714 21.0806 42.6791C21.1459 42.5403 21.2161 42.3978 21.2896 42.2572C18.9117 39.7143 16.3182 38.4669 13.5761 38.5595H13.5745Z" fill="var(--fill-0, #D8A444)"/>
<path id="Vector_7" d="M14.5025 36.063C9.93616 36.348 6.27785 40.2974 4.98438 41.8835C5.03827 42.0482 5.09053 42.2148 5.14606 42.3795C6.24845 40.9877 9.91982 36.8163 14.527 36.5312C17.3606 36.3554 20.07 37.6676 22.5883 40.4307C22.7027 40.327 22.8203 40.2382 22.9395 40.1623C20.3166 37.2567 17.4765 35.8798 14.5025 36.063Z" fill="var(--fill-0, #D8A444)"/>
<path id="Vector_8" d="M28.944 43.2193C28.833 43.086 28.7187 42.9565 28.6027 42.8288C27.6996 41.8183 24.9003 38.7091 23.7391 37.4191C22.7609 36.3328 21.6846 35.4593 20.5414 34.8245C16.8308 32.7646 12.8687 33.3143 9.08629 36.4179C6.9403 38.1779 5.41002 40.3081 4.78125 41.2575C4.83678 41.4352 4.89231 41.6128 4.94947 41.7905C5.41329 41.0613 7.00563 38.7017 9.3378 36.7918C13.0386 33.7622 16.7459 33.2421 20.3585 35.2483C21.4625 35.8609 22.5012 36.7048 23.4484 37.756C24.6096 39.0459 27.4072 42.1551 28.3104 43.1656C28.4231 43.2914 28.5341 43.4173 28.6419 43.5468C29.2886 44.3167 32.1418 47.3796 36.553 47.3778C37.6685 47.3778 38.8852 47.1816 40.1901 46.7023C40.2521 46.5117 40.3175 46.3229 40.3828 46.1341C33.9759 48.6899 29.7378 44.1668 28.9424 43.223L28.944 43.2193Z" fill="var(--fill-0, #D8A444)"/>
<path id="Vector_9" d="M30.1082 47.7367C28.4097 46.5356 27.2404 45.0273 26.7227 44.2852C26.8239 44.6275 26.9513 45.0421 27.1032 45.5122C27.745 46.295 28.6776 47.2759 29.8763 48.1254C31.2416 49.0951 33.1198 49.989 35.3932 49.989C36.6197 49.989 37.9638 49.7262 39.4042 49.0748C39.4761 48.8768 39.548 48.6732 39.6198 48.4659C36.3126 50.1056 33.1149 49.8613 30.1099 47.7367H30.1082Z" fill="var(--fill-0, #D8A444)"/>
<path id="Vector_10" d="M29.1406 50.7753C29.25 51.0068 29.3611 51.2364 29.4754 51.4623C30.4194 51.9104 31.8631 52.3881 33.7282 52.3881C35.0903 52.3881 36.6777 52.1307 38.4562 51.4215C38.5444 51.2253 38.6343 51.0234 38.7241 50.8105C33.9193 52.8825 30.5239 51.5549 29.1406 50.7734V50.7753Z" fill="var(--fill-0, #D8A444)"/>
<path id="Vector_11" d="M31.8221 54.9774C32.9179 54.9441 35.0933 54.7405 37.2148 53.7522C37.3585 53.5283 37.5055 53.2821 37.6541 53.0156C35.1325 54.3907 32.2924 54.511 31.4023 54.5128C31.5412 54.6776 31.68 54.833 31.8221 54.9774Z" fill="var(--fill-0, #D8A444)"/>
<path id="Vector_12" d="M28.4659 39.1775C27.7098 38.1966 26.9912 37.3527 26.2693 36.5958C22.0639 32.1874 19.7317 31.536 19.5308 31.486C16.0456 30.2812 12.2763 31.5674 8.63104 35.2059C6.64837 37.1862 5.19321 39.3774 4.53504 40.4434C4.59057 40.6285 4.6461 40.8117 4.70326 40.9949C5.23077 40.1103 6.74799 37.7099 8.90541 35.5575C11.3699 33.0961 15.1948 30.4699 19.4181 31.9357L19.4377 31.9413C19.4606 31.9468 21.783 32.5298 25.9884 36.9382C26.6988 37.684 27.4076 38.5168 28.154 39.4847C28.9657 40.5378 30.6789 42.4903 33.0355 43.7487C34.525 44.5427 36.0275 44.9406 37.5349 44.9406C38.701 44.9406 39.8704 44.6982 41.0348 44.2225C41.0969 44.0375 41.1606 43.845 41.2275 43.6414C34.9888 46.4397 30.2428 41.4798 28.4659 39.1757V39.1775Z" fill="var(--fill-0, #D8A444)"/>
<path id="Vector_13" d="M28.5238 35.637C28.1253 35.1151 27.784 34.695 27.4492 34.3156C25.0566 31.5932 22.6346 29.9054 21.9486 29.4538C21.8229 29.3705 21.7004 29.3039 21.5779 29.2484C17.3823 27.3699 12.9776 28.708 8.83915 33.1145C6.60497 35.4945 5.00119 38.1873 4.26953 39.5253C4.32506 39.7196 4.38222 39.9158 4.43938 40.1101C5.04039 38.972 6.70623 36.0293 9.12169 33.4569C13.1916 29.1225 17.3317 27.8529 21.4244 29.6851C21.5289 29.7314 21.6318 29.7888 21.7396 29.861C22.4141 30.307 24.7985 31.9671 27.1552 34.6487C27.4818 35.0207 27.8166 35.4334 28.2102 35.9461C29.164 37.1934 33.3906 42.2977 38.5809 42.2977C39.6522 42.2977 40.7628 42.0793 41.8962 41.5667C41.9566 41.3723 42.0187 41.1724 42.0824 40.9689C35.584 44.2594 29.6605 37.125 28.5238 35.6388V35.637Z" fill="var(--fill-0, #D8A444)"/>
<path id="Vector_14" d="M33.1958 37.1677C30.7314 35.4872 29.2354 33.2294 29.2207 33.2072L29.2093 33.1905C25.9119 29.0172 22.67 26.8926 22.6276 26.8667C18.3928 24.4681 13.7056 25.7932 9.07061 30.6995C6.55389 33.3645 4.67901 36.4292 3.82813 37.932C3.88039 38.1282 3.93428 38.3262 3.98818 38.5224C4.70841 37.2139 6.66168 33.8882 9.36132 31.0344C13.9195 26.2115 18.3225 24.9493 22.4349 27.2794C22.4659 27.2997 25.6473 29.3818 28.8973 33.4959C29.0182 33.6772 30.4962 35.8703 32.9737 37.5619C34.4207 38.5501 36.3822 39.4662 38.6882 39.4662C39.9735 39.4662 41.365 39.1812 42.8316 38.4669C42.8887 38.2688 42.9475 38.0671 43.0063 37.8635C39.7253 39.6013 36.4279 39.37 33.1991 37.1695L33.1958 37.1677Z" fill="var(--fill-0, #D8A444)"/>
<path id="Vector_15" d="M34.071 35.0492C31.7258 33.6353 30.3637 31.5939 30.3425 31.5625C24.3831 23.5545 20.274 22.9623 19.9898 22.9308C16.2891 22.1868 12.1261 24.3818 7.9517 29.2769C5.79265 31.8105 4.13661 34.4736 3.30859 35.8968C3.35759 36.0967 3.40658 36.2984 3.45558 36.5002C4.18397 35.2176 5.92167 32.3305 8.25384 29.597C11.0956 26.2658 15.4284 22.4866 19.9245 23.3953H19.9425C19.9833 23.4027 24.1054 23.9135 30.0159 31.8549C30.073 31.9419 31.4367 33.9906 33.8604 35.4545C36.0276 36.7648 39.4589 37.8068 43.6545 35.5248C43.71 35.3213 43.7656 35.114 43.8195 34.9067C40.4535 36.8722 37.1741 36.9203 34.0694 35.0492H34.071Z" fill="var(--fill-0, #D8A444)"/>
<path id="Vector_16" d="M33.5336 31.5304C30.6282 29.6464 28.8154 26.8852 28.7974 26.8574L28.7843 26.8389C25.0591 22.1788 21.0986 20.3651 21.048 20.3429C17.1055 18.8587 12.5898 20.863 7.98752 26.1375C5.54103 28.9413 3.66288 31.9931 2.76953 33.5477C2.81526 33.755 2.86099 33.9641 2.90672 34.1714C3.67758 32.7982 5.64882 29.4836 8.28802 26.4595C11.4139 22.8802 16.1403 18.9901 20.9059 20.7816C20.9451 20.7982 24.8157 22.5749 28.4708 27.1424C28.6112 27.3571 30.3979 30.0295 33.318 31.9265C35.9474 33.6347 39.983 34.9635 44.569 31.9579C44.6212 31.7433 44.6735 31.5249 44.7258 31.3084C41.0576 33.8919 37.2948 33.966 33.5369 31.5267L33.5336 31.5304Z" fill="var(--fill-0, #D8A444)"/>
<path id="Vector_17" d="M37.2847 30.6022C32.9829 30.0729 30.231 26.253 30.2049 26.2142L30.1951 26.2012C29.2152 25.0112 25.0816 20.5251 25.0408 20.4807L25.031 20.4696C22.1517 17.7398 19.1009 16.7182 15.9636 17.4307C11.6537 18.4116 7.94474 22.5461 5.59134 25.8403C4.12638 27.8909 2.99133 29.8804 2.28906 31.2055C2.33316 31.4276 2.37725 31.6515 2.42135 31.8755C4.11332 28.6127 9.4195 19.3999 16.0453 17.8916C19.0503 17.2068 21.9835 18.1932 24.7599 20.8249C24.9265 21.0063 28.9228 25.3443 29.8881 26.5158C30.0628 26.762 32.8147 30.5226 37.2373 31.0686C39.9647 31.4054 42.7183 30.4319 45.431 28.1741C45.4816 27.9353 45.5306 27.6966 45.5796 27.456C42.8261 29.8804 40.0382 30.9409 37.2863 30.6022H37.2847Z" fill="var(--fill-0, #D8A444)"/>
<path id="Vector_18" d="M36.995 28.0142C32.574 27.5367 29.8613 23.4634 29.8254 23.4097C23.3907 14.8076 18.6365 14.3986 18.3246 14.3801C14.7936 13.8656 10.7483 16.29 6.30115 21.5812C4.31358 23.9464 2.68857 26.3856 1.70703 27.9569C1.74296 28.1715 1.77889 28.3862 1.81645 28.6028C4.18619 24.757 11.5436 13.8601 18.2821 14.8465H18.3001C18.3474 14.8502 23.1294 15.1796 29.5036 23.7002C29.618 23.8742 32.347 27.9791 36.9525 28.4806C39.9592 28.8082 43.0377 27.509 46.1146 24.6182C46.1571 24.3739 46.1996 24.1278 46.2388 23.8816C43.121 26.9501 40.0131 28.34 36.995 28.0124V28.0142Z" fill="var(--fill-0, #D8A444)"/>
<path id="Vector_19" d="M36.8361 25.3884C31.8305 25.2255 28.4498 20.3785 28.4155 20.3286C26.588 17.6728 22.1735 13.8437 21.9857 13.6827L21.9661 13.6679C19.4624 11.9615 16.8134 11.5118 14.0926 12.3298C7.90774 14.1898 2.9282 22.1996 1.26563 25.1626C1.29829 25.394 1.33258 25.6271 1.36851 25.8603C2.69302 23.4192 7.80158 14.7061 14.1987 12.7833C16.8036 12.0004 19.3416 12.4298 21.7423 14.0639C21.971 14.262 26.3299 18.0652 28.0872 20.6173C28.1215 20.6673 31.6165 25.6845 36.8182 25.8566C40.2135 25.9695 43.555 24.0429 46.7658 20.1306C46.7969 19.8603 46.8279 19.5901 46.8557 19.3199C43.6089 23.4563 40.2397 25.4976 36.8329 25.3884H36.8361Z" fill="var(--fill-0, #D8A444)"/>
<path id="Vector_20" d="M15.334 9.68201H15.3552C15.3977 9.67461 19.5476 9.21564 24.1547 14.7067C24.336 14.9325 28.6427 20.2606 32.1165 21.9096C32.2046 21.9559 34.318 23.0441 37.3116 22.7054C39.9263 22.4093 43.694 20.9084 47.1384 15.5784C47.1498 15.2933 47.158 15.0102 47.1629 14.7289C43.7185 20.3754 39.9051 21.9337 37.2903 22.2353C34.4029 22.5703 32.3108 21.4951 32.283 21.4802C28.8877 19.8683 24.5042 14.4457 24.4569 14.3865C19.768 8.79738 15.6149 9.17677 15.3176 9.21379C12.084 9.26376 8.49097 11.6863 4.63995 16.4112C3.00841 18.4136 1.67574 20.4253 0.828125 21.7912C0.855889 22.0188 0.883653 22.2483 0.911417 22.4815C3.00351 19.0503 9.22264 9.769 15.3323 9.68386L15.334 9.68201Z" fill="var(--fill-0, #D8A444)"/>
<path id="Vector_21" d="M5.52384 11.8736C9.81092 7.3005 13.938 5.91432 17.7808 7.74652C17.8249 7.77058 22.1642 10.1913 26.3141 15.7286C26.3517 15.7804 30.0672 20.6552 35.3097 20.6552C35.5122 20.6552 35.7163 20.6478 35.9221 20.633C39.8907 20.3443 43.6503 17.3202 47.1093 11.6423C47.0946 11.3924 47.075 11.1444 47.0554 10.9001C43.5947 16.7594 39.8433 19.8742 35.9009 20.1647C30.5457 20.5589 26.6685 15.4769 26.631 15.4251C22.4223 9.80635 18.0078 7.34862 17.9539 7.31901C13.9902 5.42944 9.59371 6.88779 5.2364 11.5386C2.99895 13.926 1.29719 16.6003 0.441406 18.0605C0.464271 18.3011 0.487135 18.5472 0.511633 18.7971C1.22206 17.5423 3.03979 14.5275 5.52874 11.8717L5.52384 11.8736Z" fill="var(--fill-0, #D8A444)"/>
<path id="Vector_22" d="M12.4283 4.52323C15.2749 4.08647 17.9925 5.19319 20.4994 7.80638L26.4131 14.4541C26.4425 14.4911 29.2565 17.9556 33.6497 17.9556C33.8424 17.9556 34.0384 17.9482 34.2377 17.9353C38.4463 17.641 42.6142 14.2986 46.6367 8.00256C46.5943 7.80268 46.5485 7.60466 46.5012 7.41033C42.495 13.7897 38.3647 17.1728 34.2197 17.4671C29.6909 17.7891 26.7496 14.1765 26.7136 14.1302L20.7868 7.4677C18.1787 4.74902 15.3484 3.60158 12.3727 4.05871C6.64683 4.93779 1.8698 11.6114 0.148438 14.3172C0.163136 14.5503 0.179468 14.7946 0.197433 15.05C1.57256 12.8033 6.49658 5.43378 12.4299 4.52323H12.4283Z" fill="var(--fill-0, #D8A444)"/>
<path id="Vector_23" d="M5.10203 5.75996C9.4822 1.96232 13.5178 1.28311 17.0977 3.739C17.2381 3.85189 20.0064 6.10234 23.6043 10.3516C23.6467 10.4071 27.6284 15.6224 33.0489 15.6224C33.3347 15.6224 33.6238 15.6076 33.9161 15.5779C38.1738 15.1356 42.1065 11.5175 45.6064 4.82536C45.5312 4.66435 45.4528 4.50519 45.3728 4.34973C41.9138 11.0548 38.048 14.6767 33.8818 15.1116C28.2359 15.7001 23.9619 10.1054 23.9113 10.0388C20.1975 5.65262 17.359 3.37441 17.3312 3.3522L17.3198 3.34295C13.6288 0.805631 9.31399 1.5163 4.84399 5.39537C2.68004 7.27384 0.958673 9.48358 0.00489932 10.8216C0.00163297 10.9863 0 11.1511 0 11.3195C0 11.3195 0.00163243 11.4065 0.00816512 11.5749C0.841083 10.359 2.69473 7.85126 5.10367 5.76367L5.10203 5.75996Z" fill="var(--fill-0, #D8A444)"/>
<path id="Vector_24" d="M7.83366 0.896065L7.7863 0.429688C4.68491 0.833141 1.89545 4.47903 0.374961 6.87569C0.306368 7.23658 0.245941 7.61227 0.195313 8.00462C1.49532 5.81338 4.53629 1.32358 7.83366 0.896065Z" fill="var(--fill-0, #D8A444)"/>
<path id="Vector_25" d="M32.1993 12.9587C25.8397 13.3104 20.999 5.81873 20.9451 5.73175C17.3602 0.695982 14.2981 0.435035 14.169 0.425781L14.1445 0.894009C14.1739 0.89586 17.1512 1.15126 20.6152 6.01676C20.6642 6.09263 25.4069 13.4399 31.7665 13.4399C31.9151 13.4399 32.067 13.4362 32.2172 13.427C36.5664 13.1882 40.615 9.5664 44.2553 2.66328C44.1574 2.54669 44.0545 2.43564 43.9516 2.3246C40.3733 9.14629 36.421 12.7237 32.1993 12.9569V12.9587Z" fill="var(--fill-0, #D8A444)"/>
<path id="Vector_26" d="M29.7197 10.8626C29.8373 10.8682 29.9532 10.87 30.0708 10.87C34.2746 10.87 38.431 7.58873 42.4356 1.10942C42.3131 1.03539 42.1873 0.965063 42.0599 0.898438C38.0423 7.37775 33.8973 10.5702 29.7376 10.3925C24.6193 10.1723 20.8254 4.82008 19.4323 2.52891C19.2118 2.43637 18.9848 2.33643 18.7578 2.22909C19.8177 4.0909 23.935 10.6109 29.7213 10.8626H29.7197Z" fill="var(--fill-0, #D8A444)"/>
<path id="Vector_27" d="M28.7352 8.5531C28.8397 8.5568 28.9442 8.5605 29.0504 8.5605C32.7658 8.5605 36.5074 5.75299 40.1821 0.215684C40.0318 0.182371 39.8799 0.15091 39.7248 0.125C36.0763 5.56052 32.3869 8.23848 28.7548 8.08487C25.0132 7.92756 22.2874 4.7351 21.1393 3.11389C20.9253 3.05466 20.7065 2.99174 20.4844 2.91771C21.4039 4.32795 24.4089 8.36803 28.7368 8.5531H28.7352Z" fill="var(--fill-0, #D8A444)"/>
<path id="Vector_28" d="M28.1423 6.03699C31.1473 6.03699 34.2144 4.00677 37.2636 0C37.0725 0.0111042 36.8781 0.0240598 36.6789 0.0425668C33.8029 3.70881 30.9334 5.56692 28.1423 5.56692C28.1341 5.56692 28.1243 5.56692 28.1162 5.56692C25.9097 5.55766 24.2619 4.351 23.3881 3.52004C23.1611 3.50153 22.9276 3.47562 22.6875 3.44046C23.411 4.25107 25.3136 6.02219 28.1096 6.03514C28.1211 6.03514 28.1325 6.03514 28.1439 6.03514L28.1423 6.03699Z" fill="var(--fill-0, #D8A444)"/>
<path id="Vector_29" d="M33.0622 0.78125C32.7242 0.881188 32.3796 0.98853 32.0268 1.10883C30.4541 2.38396 29.061 2.72264 28.0566 2.73744C27.9504 2.78741 27.8459 2.83553 27.7381 2.88735C27.7381 2.88735 27.5258 2.99839 27.1289 3.13164C27.3739 3.17606 27.663 3.20752 27.9912 3.20752C29.2422 3.20752 31.0534 2.74855 33.0622 0.78125Z" fill="var(--fill-0, #D8A444)"/>
</g>
</svg>
