<svg preserveAspectRatio="none" width="100%" height="100%" overflow="visible" style="display: block;" viewBox="0 0 153.378 18.8457" fill="none" xmlns="http://www.w3.org/2000/svg">
<g id="Group">
<path id="Vector" d="M24.6658 0.210938L19.2306 18.6347H16.7923L12.3566 3.9216L7.92089 18.6347H5.4352L0 0.210938H2.3926L6.78257 15.1868L11.3587 0.210938H13.4949L17.978 15.2664L22.461 0.210938H24.6674H24.6658Z" fill="var(--fill-0, #5E5D5F)"/>
<path id="Vector_2" d="M38.7853 14.0244H30.1458L28.3574 18.6308H25.9648L33.3272 0.207031H35.6267L43.0119 18.6308H40.5736L38.7853 14.0244ZM37.9719 11.9183L34.4655 2.89055L30.9591 11.9183H37.9736H37.9719Z" fill="var(--fill-0, #5E5D5F)"/>
<path id="Vector_3" d="M49.285 2.50026H43.7109V0.210938H57.1585V2.50026H51.5845V18.6347H49.285V2.50026Z" fill="var(--fill-0, #5E5D5F)"/>
<path id="Vector_4" d="M72.9285 16.3417V18.631H61.1289V0.207253H72.6019V2.49657H63.4512V8.15602H71.604V10.3935H63.4512V16.3417H72.9269H72.9285Z" fill="var(--fill-0, #5E5D5F)"/>
<path id="Vector_5" d="M88.9977 18.6326L85.4912 12.9732C85.1662 12.9991 84.8184 13.025 84.4689 13.025H80.4513V18.6308H78.1289V0.207031H84.4689C88.6955 0.207031 91.2514 2.62775 91.2514 6.62897C91.2514 9.47165 89.9514 11.5241 87.6748 12.4457L91.5307 18.6308H88.9993L88.9977 18.6326ZM88.9274 6.63082C88.9274 3.99912 87.371 2.4982 84.3987 2.4982H80.4496V10.7893H84.3987C87.371 10.7893 88.9274 9.26252 88.9274 6.63082Z" fill="var(--fill-0, #5E5D5F)"/>
<path id="Vector_6" d="M94.9648 16.5268L95.8239 14.4743C97.0308 15.7106 99.0984 16.6064 101.189 16.6064C104 16.6064 105.206 15.3701 105.206 13.7637C105.206 9.26277 95.3584 12.1054 95.3584 5.2634C95.3584 2.42072 97.3101 0 101.582 0C103.487 0 105.461 0.579269 106.809 1.63232L106.043 3.73842C104.627 2.71128 103.023 2.2375 101.584 2.2375C98.8208 2.2375 97.6351 3.55335 97.6351 5.15976C97.6351 9.66067 107.483 6.8439 107.483 13.6082C107.483 16.425 105.486 18.8457 101.189 18.8457C98.7032 18.8457 96.2648 17.8982 94.9648 16.5305V16.5268Z" fill="var(--fill-0, #5E5D5F)"/>
<path id="Vector_7" d="M112.316 0.210938H114.639V18.6347H112.316V0.210938Z" fill="var(--fill-0, #5E5D5F)"/>
<path id="Vector_8" d="M120.957 0.208881H127.808C133.034 0.208881 136.588 3.94545 136.588 9.41983C136.588 14.8942 133.034 18.6308 127.808 18.6308H120.957V0.207031V0.208881ZM127.669 16.3415C131.687 16.3415 134.266 13.5525 134.266 9.41983C134.266 5.28721 131.687 2.4982 127.669 2.4982H123.279V16.3415H127.669Z" fill="var(--fill-0, #5E5D5F)"/>
<path id="Vector_9" d="M153.378 16.3417V18.631H141.578V0.207253H153.051V2.49657H143.9V8.15602H152.053V10.3935H143.9V16.3417H153.376H153.378Z" fill="var(--fill-0, #5E5D5F)"/>
</g>
</svg>
