<svg preserveAspectRatio="none" width="100%" height="100%" overflow="visible" style="display: block;" viewBox="0 0 153.38 11.4188" fill="none" xmlns="http://www.w3.org/2000/svg">
<g id="Group">
<path id="Vector" d="M0 0.125H4.15316C7.31988 0.125 9.47404 2.39026 9.47404 5.70857C9.47404 9.02688 7.31988 11.2921 4.15316 11.2921H0V0.126853V0.125ZM4.06824 9.90412C6.5033 9.90412 8.06625 8.21257 8.06625 5.70857C8.06625 3.20457 6.5033 1.51303 4.06824 1.51303H1.40779V9.90227H4.06824V9.90412Z" fill="var(--fill-0, #D8A444)"/>
<path id="Vector_2" d="M25.111 9.90227V11.2903H17.9609V0.125H24.915V1.51303H19.3687V4.94238H24.3091V6.29895H19.3687V9.90412H25.111V9.90227Z" fill="var(--fill-0, #D8A444)"/>
<path id="Vector_3" d="M42.2011 0.125V11.2903H41.0464L35.1344 2.96398V11.2903H33.7266V0.125H34.8812L40.7933 8.45132V0.125H42.2011Z" fill="var(--fill-0, #D8A444)"/>
<path id="Vector_4" d="M53.4516 1.51303H50.0742V0.125H58.2237V1.51303H54.8447V11.2903H53.4516V1.51303Z" fill="var(--fill-0, #D8A444)"/>
<path id="Vector_5" d="M71.8761 8.49943H66.6402L65.5557 11.2903H64.1055L68.5673 0.125H69.9604L74.4369 11.2903H72.9589L71.8745 8.49943H71.8761ZM71.3845 7.2243L69.2598 1.75362L67.135 7.2243H71.3862H71.3845Z" fill="var(--fill-0, #D8A444)"/>
<path id="Vector_6" d="M82.2344 0.125H83.6422V9.90227H88.9777V11.2903H82.236V0.125H82.2344Z" fill="var(--fill-0, #D8A444)"/>
<path id="Vector_7" d="M95.9453 5.70942C95.9453 2.40777 98.1697 0 101.168 0C102.689 0 104.012 0.590377 104.913 1.73781L103.998 2.74274C103.239 1.83405 102.31 1.41949 101.225 1.41949C99.001 1.41949 97.3547 3.23873 97.3547 5.70942C97.3547 8.18011 99.001 9.99935 101.225 9.99935C102.31 9.99935 103.237 9.56814 103.998 8.65944L104.913 9.66437C104.012 10.8137 102.689 11.4188 101.155 11.4188C98.1713 11.4188 95.9469 9.01107 95.9469 5.70757L95.9453 5.70942Z" fill="var(--fill-0, #D8A444)"/>
<path id="Vector_8" d="M119.298 8.49943H114.062L112.978 11.2903H111.527L115.989 0.125H117.382L121.859 11.2903H120.381L119.296 8.49943H119.298ZM118.806 7.2243L116.682 1.75362L114.557 7.2243H118.808H118.806Z" fill="var(--fill-0, #D8A444)"/>
<path id="Vector_9" d="M136.248 11.2942L134.122 7.86485C133.924 7.88151 133.714 7.89631 133.503 7.89631H131.068V11.2942H129.66V0.128906H133.503C136.065 0.128906 137.614 1.59651 137.614 4.02093C137.614 5.74394 136.825 6.98762 135.446 7.54653L137.784 11.2942H136.25H136.248ZM136.206 4.01908C136.206 2.42378 135.264 1.51508 133.461 1.51508H131.068V6.53974H133.461C135.262 6.53974 136.206 5.61439 136.206 4.01908Z" fill="var(--fill-0, #D8A444)"/>
<path id="Vector_10" d="M153.38 9.90617V11.2942H146.23V0.128906H153.185V1.51693H147.638V4.94629H152.579V6.30286H147.638V9.90802H153.38V9.90617Z" fill="var(--fill-0, #D8A444)"/>
</g>
</svg>
