<svg preserveAspectRatio="none" width="100%" height="100%" overflow="visible" style="display: block;" viewBox="0 0 24 19" fill="none" xmlns="http://www.w3.org/2000/svg">
<path id="Vector" d="M20.7483 12.1754C20.6326 11.3834 20.0116 10.7659 19.2123 10.5818C16.1053 9.86456 15.3264 8.10231 15.195 6.14769C14.644 6.04675 13.6638 5.9375 12 5.9375C10.3362 5.9375 9.35599 6.04675 8.805 6.14769C8.67358 8.10231 7.89472 9.86456 4.78773 10.5818C3.98837 10.7671 3.36746 11.3834 3.25171 12.1754L2.6525 16.2628C2.44151 17.7021 3.51455 19 5.00716 19H18.9929C20.4843 19 21.5585 17.7021 21.3475 16.2628L20.7483 12.1754ZM12 16.0217C10.3181 16.0217 8.9545 14.6917 8.9545 13.053C8.9545 11.4142 10.3181 10.0842 12 10.0842C13.6819 10.0842 15.0455 11.4142 15.0455 13.053C15.0455 14.6917 13.6807 16.0217 12 16.0217ZM23.9964 4.75C23.9674 2.96875 19.3642 0.0011875 12 0C4.63461 0.0011875 0.0313853 2.96875 0.00365507 4.75C-0.0240752 6.53125 0.0289741 8.84925 3.06001 8.46331C6.60587 8.01087 6.38764 6.79131 6.38764 5.04806C6.38764 3.83206 9.27159 3.53875 12 3.53875C14.7284 3.53875 17.6112 3.83206 17.6124 5.04806C17.6124 6.79131 17.3941 8.01087 20.94 8.46331C23.9698 8.84925 24.0241 6.53125 23.9964 4.75Z" fill="var(--fill-0, white)"/>
</svg>
