<svg width="26" height="26" viewBox="0 0 26 26" fill="none" xmlns="http://www.w3.org/2000/svg">
<path d="M13.6188 20.2467C13.5456 20.1735 13.4875 20.0867 13.4479 19.9911C13.4082 19.8955 13.3878 19.793 13.3878 19.6895C13.3878 19.586 13.4082 19.4835 13.4479 19.3879C13.4875 19.2923 13.5456 19.2055 13.6188 19.1323L19.3626 13.3895L3.93845 13.3895C3.72959 13.3895 3.52928 13.3065 3.3816 13.1588C3.23391 13.0112 3.15095 12.8109 3.15095 12.602C3.15095 12.3931 3.23391 12.1928 3.3816 12.0452C3.52928 11.8975 3.72959 11.8145 3.93845 11.8145L19.3626 11.8145L13.6188 6.07166C13.471 5.92389 13.388 5.72348 13.388 5.5145C13.388 5.30553 13.471 5.10511 13.6188 4.95735C13.7666 4.80958 13.967 4.72656 14.1759 4.72656C14.3849 4.72656 14.5853 4.80958 14.7331 4.95735L21.8206 12.0448C21.8938 12.118 21.9519 12.2048 21.9915 12.3004C22.0312 12.396 22.0516 12.4985 22.0516 12.602C22.0516 12.7055 22.0312 12.808 21.9915 12.9036C21.9519 12.9992 21.8938 13.086 21.8206 13.1592L14.7331 20.2467C14.66 20.3199 14.5731 20.378 14.4775 20.4176C14.3819 20.4572 14.2794 20.4776 14.1759 20.4776C14.0725 20.4776 13.97 20.4572 13.8744 20.4176C13.7788 20.378 13.6919 20.3199 13.6188 20.2467Z" fill="white"/>
</svg>
