<svg preserveAspectRatio="none" width="100%" height="100%" overflow="visible" style="display: block;" viewBox="0 0 22.8571 22.8571" fill="none" xmlns="http://www.w3.org/2000/svg">
<g id="Frame">
<path id="Vector" d="M20.5072 19.4965L16.0367 15.0269C17.3324 13.4713 17.9786 11.476 17.8407 9.45611C17.7028 7.43623 16.7914 5.54728 15.2963 4.18221C13.8011 2.81713 11.8373 2.08103 9.81322 2.12703C7.78917 2.17303 5.86077 2.99759 4.42918 4.42918C2.99759 5.86077 2.17303 7.78917 2.12703 9.81322C2.08103 11.8373 2.81713 13.8011 4.18221 15.2963C5.54728 16.7914 7.43623 17.7028 9.45611 17.8407C11.476 17.9786 13.4713 17.3324 15.0269 16.0367L19.4965 20.5072C19.5629 20.5736 19.6417 20.6262 19.7284 20.6622C19.8151 20.6981 19.908 20.7166 20.0019 20.7166C20.0957 20.7166 20.1887 20.6981 20.2754 20.6622C20.3621 20.6262 20.4409 20.5736 20.5072 20.5072C20.5736 20.4409 20.6262 20.3621 20.6622 20.2754C20.6981 20.1887 20.7166 20.0957 20.7166 20.0019C20.7166 19.908 20.6981 19.8151 20.6622 19.7284C20.6262 19.6417 20.5736 19.5629 20.5072 19.4965ZM3.57331 10.0019C3.57331 8.73043 3.95034 7.48753 4.65672 6.43035C5.3631 5.37318 6.3671 4.54922 7.54177 4.06265C8.71644 3.57609 10.009 3.44878 11.256 3.69683C12.5031 3.94488 13.6485 4.55714 14.5476 5.45619C15.4466 6.35524 16.0589 7.50071 16.3069 8.74773C16.555 9.99475 16.4277 11.2873 15.9411 12.462C15.4545 13.6367 14.6306 14.6407 13.5734 15.347C12.5162 16.0534 11.2733 16.4305 10.0019 16.4305C8.2975 16.4286 6.66346 15.7507 5.45828 14.5455C4.2531 13.3403 3.5752 11.7063 3.57331 10.0019Z" fill="var(--fill-0, #5E5D5F)"/>
</g>
</svg>
