<svg preserveAspectRatio="none" width="100%" height="100%" overflow="visible" style="display: block;" viewBox="0 0 14 14" fill="none" xmlns="http://www.w3.org/2000/svg">
<g id="Frame">
<path id="Vector" d="M12.8171 6.28024L10.3562 8.40375L11.1059 11.5795C11.1473 11.7518 11.1366 11.9326 11.0753 12.099C11.014 12.2653 10.9047 12.4098 10.7614 12.514C10.618 12.6183 10.4469 12.6778 10.2698 12.6849C10.0926 12.692 9.91735 12.6464 9.76608 12.554L7.00436 10.8543L4.241 12.554C4.08975 12.6459 3.91468 12.691 3.73784 12.6837C3.561 12.6763 3.3903 12.6168 3.24722 12.5126C3.10415 12.4084 2.9951 12.2642 2.93381 12.0981C2.87252 11.9321 2.86173 11.7516 2.9028 11.5795L3.6553 8.40375L1.19436 6.28024C1.06054 6.16458 0.963757 6.01206 0.916101 5.84172C0.868445 5.67139 0.872027 5.49079 0.9264 5.32248C0.980773 5.15417 1.08353 5.0056 1.22183 4.89534C1.36013 4.78508 1.52785 4.71801 1.70405 4.7025L4.93061 4.44219L6.1753 1.43C6.24267 1.26584 6.35734 1.12542 6.50472 1.02659C6.6521 0.927767 6.82554 0.875 7.00299 0.875C7.18044 0.875 7.35388 0.927767 7.50127 1.02659C7.64865 1.12542 7.76332 1.26584 7.83069 1.43L9.07483 4.44219L12.3014 4.7025C12.4779 4.71743 12.6461 4.78413 12.785 4.89424C12.9238 5.00435 13.027 5.15297 13.0817 5.32148C13.1364 5.49 13.1402 5.67091 13.0925 5.84156C13.0449 6.01221 12.9479 6.16499 12.8138 6.28078L12.8171 6.28024Z" fill="var(--fill-0, #D8A444)"/>
</g>
</svg>
